<?xml version="1.0" standalone="no"?>
<!DOCTYPE svg PUBLIC "-//W3C//DTD SVG 20010904//EN"
 "http://www.w3.org/TR/2001/REC-SVG-20010904/DTD/svg10.dtd">
<svg version="1.0" xmlns="http://www.w3.org/2000/svg"
 width="495.000000pt" height="281.000000pt" viewBox="0 0 495.000000 281.000000"
 preserveAspectRatio="xMidYMid meet">

<g transform="translate(0.000000,281.000000) scale(0.100000,-0.100000)"
fill="#000000" stroke="none">
<path d="M3580 2575 l0 -145 -75 0 -75 0 0 -80 0 -80 -50 0 -50 0 0 -283 0
-283 -33 -32 c-18 -18 -36 -32 -40 -32 -4 0 -7 49 -7 110 l0 109 -62 3 -63 3
-3 48 -3 47 -95 0 -94 0 0 -60 0 -60 -100 0 -100 0 -2 -307 -3 -308 -37 -3
-38 -3 0 145 0 145 -52 3 -53 3 -3 128 -3 127 -64 0 -65 0 0 -245 0 -245 -45
0 -45 0 0 385 0 385 -60 0 -60 0 0 30 c0 25 -4 30 -24 30 -15 0 -26 7 -29 20
-4 15 -14 20 -36 20 l-31 0 0 130 c0 80 -4 130 -10 130 -6 0 -10 -50 -10 -130
l0 -130 -35 0 c-31 0 -35 -3 -35 -25 0 -21 -5 -25 -30 -25 -27 0 -30 -3 -30
-30 0 -28 -3 -30 -35 -30 l-35 0 0 -150 0 -150 -45 0 -45 0 0 -179 c0 -177 0
-180 -25 -208 l-24 -28 -1 58 0 57 -45 0 -45 0 0 150 0 150 -35 0 -35 0 0
-135 0 -135 -65 0 -65 0 0 -135 0 -136 -67 3 -68 3 -3 93 -3 92 -34 0 -35 0 0
60 0 60 -60 0 -60 0 0 50 0 50 -40 0 c-36 0 -40 3 -40 25 0 24 -2 25 -65 25
l-65 0 0 -30 c0 -29 -2 -30 -45 -30 l-45 0 0 -130 0 -130 -70 0 -70 0 0 -115
0 -115 -235 0 c-150 0 -235 -4 -235 -10 0 -6 88 -10 245 -10 l245 0 0 115 0
115 70 0 70 0 0 130 0 130 44 0 c43 0 45 1 48 33 3 30 6 32 45 35 39 3 42 1
45 -25 3 -24 8 -28 40 -31 l38 -3 0 -50 0 -49 60 0 60 0 0 -60 0 -60 35 0 36
0 -3 -82 -3 -83 -43 -3 -42 -3 0 -55 0 -54 54 0 55 0 3 48 3 47 78 3 77 3 0
129 0 130 65 0 65 0 0 135 c0 113 2 135 15 135 13 0 15 -23 15 -150 l0 -150
45 0 45 0 0 -58 c0 -53 -3 -61 -35 -92 -34 -33 -35 -37 -35 -107 l0 -73 45 0
45 0 0 101 0 102 35 38 35 39 0 175 0 175 40 0 39 0 3 153 3 152 38 3 c32 3
37 7 37 28 0 20 5 24 30 24 25 0 30 4 30 25 0 24 3 25 60 25 53 0 60 -2 60
-20 0 -15 7 -20 24 -20 19 0 25 -6 28 -27 3 -27 6 -28 61 -31 l57 -3 0 -374 0
-375 -75 0 -75 0 0 -95 0 -96 83 3 82 3 3 83 3 82 54 0 55 0 0 245 0 245 50 0
50 0 0 -130 0 -130 50 0 50 0 0 -135 0 -135 -35 0 -35 0 0 -65 0 -65 45 0 44
0 3 58 3 57 48 3 47 3 0 305 0 304 100 0 100 0 0 60 0 60 74 0 75 0 3 -47 3
-48 63 -3 62 -3 0 -117 0 -118 -50 -49 -50 -49 0 -198 0 -198 60 0 60 0 0 248
0 248 50 49 50 49 0 273 0 273 50 0 50 0 0 80 0 79 73 3 72 3 3 143 3 142 29
0 30 0 0 -240 0 -240 50 0 50 0 0 -565 0 -565 85 0 85 0 0 320 0 320 50 0 49
0 3 63 3 62 45 0 45 0 3 -382 2 -383 210 0 c133 0 210 4 210 10 0 6 -73 10
-200 10 l-200 0 -2 383 -3 382 -62 3 -63 3 0 -66 0 -65 -55 0 -55 0 0 -320 0
-320 -65 0 -65 0 0 565 0 565 -50 0 -50 0 0 240 0 240 -50 0 -50 0 0 -145z
m-350 -1225 l0 -220 -40 0 -40 0 0 187 0 187 32 33 c18 18 36 33 40 33 4 0 8
-99 8 -220z m-1530 -160 c0 -79 0 -80 -25 -80 -24 0 -25 3 -25 57 0 44 5 62
22 80 12 13 23 23 25 23 2 0 3 -36 3 -80z m600 -5 l0 -76 -67 3 -68 3 -3 73
-3 72 71 0 70 0 0 -75z m328 -28 c3 -45 2 -47 -22 -47 -24 0 -26 4 -26 43 0
48 6 59 30 55 10 -2 16 -17 18 -51z m-1360 -9 c3 -37 3 -38 -32 -38 -34 0 -36
2 -36 33 0 41 7 49 40 45 21 -3 25 -9 28 -40z"/>
<path d="M480 583 c-48 -19 -50 -27 -50 -205 0 -96 4 -178 10 -188 24 -45 141
-50 180 -8 18 20 20 36 20 189 0 201 -4 210 -91 215 -30 2 -61 1 -69 -3z m108
-46 c9 -7 12 -53 12 -168 0 -146 -1 -159 -19 -169 -27 -14 -84 -13 -99 2 -17
17 -17 322 1 336 25 21 77 21 105 -1z"/>
<path d="M827 570 c-30 -24 -37 -25 -37 -5 0 8 -4 15 -10 15 -6 0 -10 -77 -10
-210 0 -203 1 -210 20 -210 19 0 20 7 20 173 0 171 0 174 24 197 27 25 68 29
91 10 12 -10 15 -45 15 -196 0 -177 1 -184 20 -184 19 0 20 7 20 190 0 189 0
191 -25 215 -31 32 -91 34 -128 5z"/>
<path d="M1400 583 c-48 -19 -50 -27 -50 -205 0 -96 4 -178 10 -188 24 -45
141 -50 180 -8 18 20 20 36 20 189 0 201 -4 210 -91 215 -30 2 -61 1 -69 -3z
m108 -46 c9 -7 12 -53 12 -168 0 -146 -1 -159 -19 -169 -27 -14 -84 -13 -99 2
-17 17 -17 322 1 336 25 21 77 21 105 -1z"/>
<path d="M2080 563 c-21 -27 -21 -27 -27 -5 -16 61 -23 2 -23 -188 0 -203 1
-210 20 -210 19 0 20 7 20 173 0 140 3 177 16 195 30 43 84 19 84 -37 0 -12 7
-21 15 -21 11 0 15 12 15 44 0 35 -5 48 -22 60 -35 24 -73 20 -98 -11z"/>
<path d="M2869 560 l-30 -30 3 -165 c3 -156 4 -166 26 -187 18 -19 33 -23 83
-23 54 0 63 3 85 28 23 27 24 33 24 188 l0 161 -29 29 c-25 25 -37 29 -81 29
-44 0 -56 -4 -81 -30z m143 -33 c4 -7 8 -78 8 -159 0 -167 -4 -178 -70 -178
-62 0 -70 20 -70 175 0 71 3 140 6 153 11 40 102 46 126 9z"/>
<path d="M3246 569 c-26 -21 -28 -21 -41 -3 -13 17 -14 -8 -15 -193 0 -206 1
-213 20 -213 19 0 20 7 20 175 0 162 2 177 20 195 19 19 38 25 70 20 35 -4 40
-30 40 -212 0 -171 1 -178 20 -178 19 0 20 7 20 190 0 189 0 191 -25 215 -31
32 -91 34 -129 4z"/>
<path d="M3825 564 c-23 -24 -23 -25 -30 -5 -18 58 -25 5 -25 -189 0 -203 1
-210 20 -210 19 0 20 7 20 160 0 189 10 230 58 230 31 0 42 -14 42 -56 0 -17
6 -24 20 -24 16 0 20 7 20 34 0 76 -76 113 -125 60z"/>
<path d="M4064 578 c-37 -17 -44 -51 -44 -213 0 -148 1 -155 24 -182 21 -24
31 -28 79 -28 72 0 107 29 107 87 0 31 -3 38 -20 38 -15 0 -20 -7 -20 -29 0
-39 -24 -61 -65 -61 -52 0 -65 20 -65 101 l0 69 85 0 85 0 0 84 c0 46 -3 92
-6 101 -15 38 -110 58 -160 33z m114 -46 c6 -9 12 -42 12 -74 l0 -58 -65 0
-65 0 0 58 c0 32 6 65 13 74 22 29 81 29 105 0z"/>
<path d="M4393 580 c-27 -11 -43 -40 -43 -79 0 -24 4 -31 20 -31 15 0 20 7 20
28 0 37 17 52 60 52 50 0 60 -14 60 -86 l0 -61 -62 -6 c-84 -8 -108 -33 -108
-117 0 -70 13 -104 47 -119 38 -17 69 -13 101 14 l30 25 15 -23 c15 -20 16 -7
16 171 1 192 1 193 -24 217 -18 19 -34 25 -67 24 -24 0 -53 -4 -65 -9z m117
-284 c0 -58 -3 -67 -26 -85 -39 -31 -82 -28 -95 7 -14 35 -6 122 12 133 8 5
35 9 62 9 l47 0 0 -64z"/>
<path d="M110 370 l0 -210 66 0 c106 0 133 24 134 118 0 50 -4 66 -21 83 -19
19 -19 22 -5 38 11 12 16 37 16 79 0 54 -3 63 -26 81 -21 17 -41 21 -95 21
l-69 0 0 -210z m136 159 c17 -14 19 -100 2 -117 -7 -7 -31 -12 -55 -12 l-43 0
0 68 c0 38 3 72 8 76 9 10 70 0 88 -15z m11 -185 c18 -25 17 -109 -3 -128 -9
-10 -33 -16 -60 -16 l-44 0 0 78 c0 43 3 82 8 86 12 13 86 -2 99 -20z"/>
<path d="M1190 411 c0 -199 -6 -224 -52 -219 -31 3 -33 6 -36 46 -3 34 -7 42
-23 42 -16 0 -19 -7 -19 -44 0 -36 5 -48 26 -65 44 -35 111 -22 133 26 7 15
11 93 11 203 0 173 -1 180 -20 180 -19 0 -20 -7 -20 -169z"/>
<path d="M1682 384 c3 -182 4 -197 23 -210 44 -32 99 -30 135 6 18 18 19 18
34 -3 14 -20 15 -3 15 191 1 206 0 212 -19 212 -19 0 -20 -7 -20 -173 0 -168
-1 -174 -23 -195 -30 -28 -82 -29 -97 -3 -6 12 -10 93 -10 195 0 171 -1 176
-21 176 -20 0 -20 -4 -17 -196z"/>
<path d="M2440 371 c0 -203 1 -211 20 -211 19 0 20 8 22 171 l3 172 35 -134
c31 -118 39 -134 58 -137 12 -2 22 -1 22 2 0 17 64 243 71 250 5 6 9 -62 9
-157 0 -160 1 -167 20 -167 19 0 20 7 20 210 l0 210 -33 0 -34 0 -32 -122
c-18 -68 -36 -129 -40 -136 -4 -8 -22 43 -42 120 l-35 133 -32 3 -32 3 0 -210z"/>
<path d="M3520 386 l0 -195 26 -20 c34 -27 64 -27 98 0 23 18 26 28 26 80 0
52 -2 59 -20 59 -16 0 -19 -8 -22 -57 -3 -57 -3 -58 -33 -58 l-30 0 -3 178 -2
177 45 0 c33 0 45 4 45 15 0 12 -14 15 -65 15 l-65 0 0 -194z"/>
<path d="M4680 370 l0 -210 80 0 c73 0 80 2 80 20 0 18 -7 20 -60 20 l-60 0 0
190 c0 183 -1 190 -20 190 -19 0 -20 -7 -20 -210z"/>
</g>
</svg>
